<svg width="32" height="32" viewBox="0 0 32 32" fill="none" xmlns="http://www.w3.org/2000/svg">
<path d="M26 4H6C5.46975 4.00061 4.9614 4.21151 4.58646 4.58646C4.21151 4.9614 4.00061 5.46975 4 6V26C4.00061 26.5302 4.21151 27.0386 4.58646 27.4135C4.9614 27.7885 5.46975 27.9994 6 28H26C26.5302 27.9994 27.0386 27.7885 27.4135 27.4135C27.7885 27.0386 27.9994 26.5302 28 26V6C27.9994 5.46975 27.7885 4.9614 27.4135 4.58646C27.0386 4.21151 26.5302 4.00061 26 4ZM12 22.0001C12 22.2653 11.8946 22.5197 11.7071 22.7072C11.5196 22.8948 11.2652 23.0001 11 23.0001C10.7348 23.0001 10.4804 22.8948 10.2929 22.7072C10.1054 22.5197 10 22.2653 10 22.0001V14.0001C10 13.7349 10.1054 13.4805 10.2929 13.293C10.4804 13.1055 10.7348 13.0001 11 13.0001C11.2652 13.0001 11.5196 13.1055 11.7071 13.293C11.8946 13.4805 12 13.7349 12 14.0001V22.0001ZM11 11.5001C10.7033 11.5001 10.4133 11.4121 10.1666 11.2473C9.91997 11.0825 9.72771 10.8482 9.61418 10.5741C9.50065 10.3001 9.47094 9.99845 9.52882 9.70748C9.5867 9.41651 9.72956 9.14924 9.93934 8.93946C10.1491 8.72968 10.4164 8.58682 10.7074 8.52894C10.9983 8.47106 11.2999 8.50077 11.574 8.6143C11.8481 8.72783 12.0824 8.92009 12.2472 9.16676C12.412 9.41344 12.5 9.70345 12.5 10.0001C12.5 10.3979 12.342 10.7795 12.0607 11.0608C11.7794 11.3421 11.3978 11.5001 11 11.5001V11.5001ZM23 22.0001C23 22.2653 22.8946 22.5197 22.7071 22.7072C22.5196 22.8948 22.2652 23.0001 22 23.0001C21.7348 23.0001 21.4804 22.8948 21.2929 22.7072C21.1054 22.5197 21 22.2653 21 22.0001V17.5001C21 16.8371 20.7366 16.2012 20.2678 15.7324C19.7989 15.2635 19.163 15.0001 18.5 15.0001C17.837 15.0001 17.2011 15.2635 16.7322 15.7324C16.2634 16.2012 16 16.8371 16 17.5001V22.0001C16 22.2653 15.8946 22.5197 15.7071 22.7072C15.5196 22.8948 15.2652 23.0001 15 23.0001C14.7348 23.0001 14.4804 22.8948 14.2929 22.7072C14.1054 22.5197 14 22.2653 14 22.0001V14.0001C13.9999 13.7543 14.0904 13.5171 14.2542 13.3338C14.418 13.1504 14.6435 13.0339 14.8878 13.0064C15.1321 12.9789 15.3779 13.0423 15.5784 13.1847C15.7788 13.327 15.9198 13.5381 15.9744 13.7778C16.6506 13.3182 17.4394 13.0517 18.2559 13.0069C19.0723 12.9621 19.8855 13.1407 20.608 13.5235C21.3305 13.9063 21.935 14.4788 22.3565 15.1795C22.7779 15.8801 23.0004 16.6825 23 17.5001V22.0001Z" fill="#546680"/>
</svg>
