<svg width="23" height="26" viewBox="0 0 23 26" fill="none" xmlns="http://www.w3.org/2000/svg">
<path d="M22.9887 6.5089C21.4937 6.5089 20.1113 6.01565 19.0054 5.18678C17.7356 4.23587 16.8192 2.83747 16.4966 1.23059C16.4147 0.833952 16.3737 0.422061 16.3686 0H12.0934V11.5991L12.0883 17.9503C12.0883 19.6487 10.9722 21.0878 9.43105 21.5963C8.98049 21.7438 8.49921 21.815 7.99746 21.7845C7.35234 21.7489 6.75331 21.5556 6.22595 21.2455C5.1098 20.5844 4.35716 19.3843 4.33668 18.0063C4.30596 15.8604 6.05187 14.106 8.2125 14.106C8.63745 14.106 9.04705 14.1772 9.43105 14.2992V11.1312V9.99726C9.02657 9.93624 8.61697 9.90573 8.19714 9.90573C5.83171 9.90573 3.61989 10.8821 2.03782 12.6415C0.844866 13.9687 0.128071 15.6671 0.0154316 17.4469C-0.127927 19.781 0.732226 22.0031 2.40133 23.6405C2.64709 23.8795 2.90309 24.1033 3.17445 24.3118C4.60292 25.405 6.35395 26 8.19714 26C8.61185 26 9.02657 25.9695 9.43105 25.9085C11.1514 25.6542 12.7385 24.8711 13.9929 23.6405C15.534 22.1303 16.384 20.1217 16.3942 17.9859L16.3737 8.49716C17.1059 9.06161 17.9097 9.52435 18.775 9.88539C20.1164 10.4498 21.5398 10.7295 22.999 10.7295V7.64796V6.50381C23.0041 6.5089 22.9887 6.5089 22.9887 6.5089Z" fill="#546680"/>
</svg>
