<svg width="32" height="32" viewBox="0 0 32 32" fill="none" xmlns="http://www.w3.org/2000/svg">
<path d="M30.7068 9.70702L26.9939 13.4198C26.8942 17.0894 25.4936 20.6683 23.1163 23.2958C20.3318 26.3733 16.4878 27.9999 11.9997 27.9999C7.63566 27.9999 5.38615 25.8006 5.29252 25.707C5.16462 25.5791 5.0738 25.4189 5.02976 25.2434C4.98572 25.068 4.99009 24.8839 5.04241 24.7107C5.09474 24.5375 5.19306 24.3818 5.32689 24.2601C5.46073 24.1384 5.62507 24.0553 5.80241 24.0196C6.86967 23.8034 9.51884 22.9614 10.6462 21.4439C9.43748 20.7469 8.3642 19.838 7.4777 18.7606C4.34123 14.952 4.4077 10.1656 5.01579 6.82103C5.05012 6.63223 5.13805 6.4573 5.26908 6.31711C5.40011 6.17691 5.5687 6.07738 5.75475 6.03038C5.9408 5.98338 6.13645 5.9909 6.31834 6.05205C6.50023 6.1132 6.66068 6.22539 6.78056 6.37523C6.81493 6.41796 10.1016 10.4446 14.9997 11.7601V11.0003C15.0102 9.39906 15.6562 7.86754 16.7956 6.74243C17.935 5.61732 19.4745 4.99071 21.0757 5.00035C22.1158 5.01476 23.1344 5.29869 24.032 5.82442C24.9296 6.35016 25.6755 7.09971 26.1968 7.99987L29.9997 7.99993C30.1975 7.99993 30.3908 8.05857 30.5552 8.16845C30.7197 8.27833 30.8479 8.4345 30.9236 8.61723C30.9993 8.79995 31.0191 9.00101 30.9805 9.19499C30.9419 9.38897 30.8467 9.56716 30.7068 9.70702Z" fill="#546680"/>
</svg>
